<svg version="1.2" xmlns="http://www.w3.org/2000/svg" viewBox="0 0 97 132" width="97" height="132">
	<title>Firebase-svg</title>
	<defs>
		<linearGradient id="g1" x1="-314" y1="2920.8" x2="9100.9" y2="15942.3" gradientUnits="userSpaceOnUse">
			<stop offset="0" stop-color="#ffffff" stop-opacity=".1"/>
			<stop offset=".1" stop-color="#ffffff" stop-opacity=".1"/>
			<stop offset=".6" stop-color="#ffffff" stop-opacity="0"/>
			<stop offset="1" stop-color="#ffffff" stop-opacity="0"/>
		</linearGradient>
	</defs>
	<style>
		.s0 { fill: #ffa000 } 
		.s1 { fill: #f57c00 } 
		.s2 { fill: #ffca28 } 
		.s3 { opacity: .2;fill: #ffffff } 
		.s4 { opacity: .2;fill: #a52714 } 
		.s5 { fill: url(#g1) } 
	</style>
	<path id="Layer" class="s0" d="m0.8 105.7l16.2-103.2c0.2-1.3 1.1-2.3 2.4-2.5 1.3-0.2 2.5 0.4 3.1 1.5l16.7 31.2 6.7-12.7c0.5-1 1.5-1.6 2.6-1.6 1.1 0 2.1 0.6 2.6 1.6l45.1 85.7c0 0-95.4 0-95.4 0z"/>
	<path id="Layer" class="s1" d="m0.8 105.7l38.4-73.1 17.4 32.9z"/>
	<path id="Layer" class="s2" d="m52.7 129.9c-2.7 1.5-6 1.5-8.7 0l-43.2-24.2 78-78.1c0.8-0.7 1.9-1 3-0.7 1 0.4 1.8 1.3 2 2.4l12.4 76.4c0 0-43.5 24.2-43.5 24.2z"/>
	<path id="Layer" fill-rule="evenodd" class="s3" d="m96.2 105.7l-0.2 0.1-12.2-75.8c-0.2-1.1-1-2-2-2.3-1.1-0.4-2.3-0.1-3.1 0.7l-77.4 77.6-0.5-0.2v-0.1l16.2-103.2c0.2-1.3 1.1-2.3 2.4-2.5 1.3-0.2 2.5 0.4 3.1 1.5l16.7 31.2 6.7-12.7c0.5-1 1.5-1.6 2.6-1.6 1.1 0 2.1 0.6 2.6 1.6l12.2 23.2 15.5-15.6c0.8-0.7 1.9-1 3-0.7 1 0.4 1.8 1.3 2 2.4 0 0 12.4 76.4 12.4 76.4zm-95.2-0.1c0 0 62.1-62.2 62.1-62.2l-12-22.7c-0.5-0.9-1.5-1.6-2.6-1.6-1.1 0-2.1 0.7-2.6 1.6l-6.7 12.7-16.7-31.1c-0.6-1.2-1.8-1.8-3.1-1.6-1.3 0.3-2.2 1.3-2.4 2.5z"/>
	<path id="Layer" class="s4" d="m96.1 105l0.1 0.7-43.5 24.2c-2.7 1.5-6 1.5-8.7 0l-43.2-24.2 0.1-0.6 43.1 24.1c2.7 1.5 6 1.5 8.7 0 0 0 43.4-24.2 43.4-24.2z"/>
	<path id="b" class="s5" d="m96 105.7l-43.3 24.2c-2.7 1.5-6 1.5-8.7 0l-43-24.2 16.1-103.2c0.2-1.2 1.1-2.2 2.4-2.5 1.3-0.2 2.5 0.4 3.1 1.6l16.6 31.1 6.7-12.7c0.5-1 1.5-1.6 2.6-1.6 1.1 0 2.1 0.6 2.6 1.6l12.1 23.2 15.5-15.5c0.7-0.8 1.9-1.1 3-0.8 1 0.4 1.8 1.3 2 2.4 0 0 12.3 76.4 12.3 76.4z"/>
</svg>